<svg xmlns="http://www.w3.org/2000/svg" width="20" height="20" fill="none" viewBox="0 0 20 20">
  <path fill="#69BE95" d="M2.93 15.66a1 1 0 101.41 1.418 1 1 0 00-1.41-1.418zM17.07 4.34a1 1 0 10-1.41-1.418 1 1 0 001.41 1.418zm-12.73 0a1 1 0 10-1.41-1.418A1 1 0 004.34 4.34zm11.32 11.32a1 1 0 101.41 1.418 1 1 0 00-1.41-1.418zM19 9h-1.59l1.3-1.29A1.005 1.005 0 0018 5.996a1.004 1.004 0 00-.71.294L14.59 9h-2.18l2.3-2.29A1.005 1.005 0 0014 4.996a1.004 1.004 0 00-.71.294L11 7.59V5.41l2.71-2.7A1.005 1.005 0 0013 .996c-.266 0-.522.106-.71.294L11 2.59V1a1 1 0 00-2 0v1.59l-1.29-1.3a1.004 1.004 0 00-1.42 1.42L9 5.41v2.18l-2.29-2.3a1.004 1.004 0 10-1.42 1.42L7.59 9H5.41l-2.7-2.71a1.004 1.004 0 00-1.42 1.42L2.59 9H1a1 1 0 000 2h1.59l-1.3 1.29a1 1 0 00.325 1.639 1 1 0 001.095-.219L5.41 11h2.18l-2.3 2.29a1 1 0 00.325 1.639 1 1 0 001.095-.219L9 12.41v2.18l-2.71 2.7a1.004 1.004 0 001.42 1.42L9 17.41V19a1 1 0 102 0v-1.59l1.29 1.3a1.002 1.002 0 001.639-.325 1 1 0 00-.219-1.095L11 14.59v-2.18l2.29 2.3a1.002 1.002 0 001.639-.325 1 1 0 00-.219-1.095L12.41 11h2.18l2.7 2.71a1.002 1.002 0 001.639-.325 1 1 0 00-.219-1.095L17.41 11H19a1 1 0 000-2z"/>
</svg>
